<?xml version="1.0" standalone="no"?>
<!DOCTYPE svg PUBLIC "-//W3C//DTD SVG 20010904//EN"
 "http://www.w3.org/TR/2001/REC-SVG-20010904/DTD/svg10.dtd">
<svg version="1.0" xmlns="http://www.w3.org/2000/svg"
 width="512.000000pt" height="512.000000pt" viewBox="0 0 512.000000 512.000000"
 preserveAspectRatio="xMidYMid meet">

<g transform="translate(0.000000,512.000000) scale(0.100000,-0.100000)"
fill="#000000" stroke="none">
<path d="M1070 4981 c-14 -5 -39 -15 -55 -24 -17 -8 -244 -231 -506 -494 -447
-448 -478 -481 -494 -532 -21 -65 -16 -131 13 -192 15 -31 198 -220 634 -656
l613 -613 430 0 430 0 90 -90 90 -90 -346 0 -346 0 -24 -26 -24 -26 0 -956 0
-957 25 -49 c14 -27 42 -64 64 -82 60 -52 111 -64 261 -64 127 0 134 1 192 30
34 17 73 46 88 65 57 75 55 51 55 740 l0 635 175 0 175 0 0 -184 c0 -101 5
-207 10 -237 35 -183 182 -324 364 -350 74 -10 106 -2 130 33 14 20 16 68 16
380 l0 358 175 0 c163 0 175 -1 175 -18 0 -10 12 -29 26 -43 25 -24 27 -24
230 -24 l204 0 27 28 28 27 3 349 c4 387 0 421 -48 446 -37 19 -384 22 -424 4
-14 -7 -32 -27 -41 -45 l-16 -34 -192 0 -192 0 -282 282 -283 283 0 430 0 430
-617 617 c-560 561 -623 620 -671 638 -54 20 -117 24 -162 11z m101 -171 c14
0 99 -81 99 -94 0 -14 -981 -996 -996 -996 -16 0 -82 72 -93 103 -7 18 -7 36
0 55 13 35 884 909 924 928 17 7 36 11 43 9 8 -3 18 -5 23 -5z m706 -692 l473
-473 0 -400 0 -400 -103 -103 -102 -102 -400 0 -400 0 -475 475 -475 475 500
500 c275 275 502 500 505 500 3 0 218 -213 477 -472z m1130 -1987 c14 -7 102
-11 248 -11 l225 0 -2 -172 -3 -173 -238 -5 c-236 -5 -239 -5 -258 -29 -18
-22 -19 -44 -19 -376 0 -348 0 -353 -20 -348 -34 9 -107 81 -132 131 -22 45
-23 60 -28 315 -5 268 -5 269 -29 288 -22 18 -42 19 -315 19 -313 -1 -315 -1
-336 -54 -6 -18 -10 -256 -10 -691 l0 -664 -24 -28 c-24 -28 -25 -28 -144 -28
-114 0 -122 1 -146 24 l-26 24 0 884 0 883 401 0 401 0 29 29 c57 57 42 84
-140 266 l-141 140 67 67 68 68 275 -274 c151 -151 285 -279 297 -285z m813
-181 l0 -260 -85 0 -85 0 0 260 0 260 85 0 85 0 0 -260z"/>
<path d="M4898 2973 c-110 -107 -134 -146 -118 -189 15 -38 39 -53 83 -54 34
0 47 8 128 87 108 104 133 141 124 183 -8 37 -49 70 -87 70 -23 0 -49 -19
-130 -97z"/>
<path d="M4654 2715 c-16 -7 -73 -57 -126 -112 -88 -90 -98 -104 -98 -137 0
-27 7 -44 26 -61 54 -50 95 -32 222 99 84 87 92 99 92 134 0 63 -58 102 -116
77z"/>
<path d="M4295 2361 c-48 -30 -203 -194 -210 -223 -15 -57 44 -116 102 -102
34 9 206 174 227 218 20 43 6 90 -35 111 -36 19 -48 19 -84 -4z"/>
<path d="M4372 2010 c-43 -40 -37 -103 12 -135 21 -14 46 -16 140 -13 104 3
118 5 138 25 30 31 30 84 -2 118 -23 24 -28 25 -145 25 -108 0 -124 -2 -143
-20z"/>
<path d="M4803 2008 c-24 -27 -30 -52 -20 -90 12 -45 52 -58 172 -58 104 0
107 1 136 29 31 31 36 59 17 94 -22 42 -38 46 -164 47 -112 0 -122 -2 -141
-22z"/>
<path d="M4132 1850 c-13 -6 -30 -26 -38 -45 -13 -32 -13 -39 2 -70 8 -18 58
-74 109 -124 86 -83 98 -91 133 -91 60 0 101 54 81 108 -12 32 -172 197 -211
218 -31 16 -43 17 -76 4z"/>
<path d="M4456 1484 c-29 -30 -33 -62 -12 -102 22 -41 189 -200 218 -207 56
-14 108 26 108 84 0 31 -12 47 -108 143 -97 97 -112 108 -144 108 -25 0 -43
-8 -62 -26z"/>
<path d="M4840 1163 c-37 -13 -60 -47 -60 -85 0 -35 8 -47 91 -133 105 -108
141 -130 188 -114 38 14 65 60 56 97 -13 51 -225 250 -257 241 -2 0 -10 -3
-18 -6z"/>
</g>
</svg>
