<?xml version="1.0" standalone="no"?>
<!DOCTYPE svg PUBLIC "-//W3C//DTD SVG 20010904//EN"
 "http://www.w3.org/TR/2001/REC-SVG-20010904/DTD/svg10.dtd">
<svg version="1.0" xmlns="http://www.w3.org/2000/svg"
 width="512.000000pt" height="512.000000pt" viewBox="0 0 512.000000 512.000000"
 preserveAspectRatio="xMidYMid meet">

<g transform="translate(0.000000,512.000000) scale(0.100000,-0.100000)"
fill="#000000" stroke="none">
<path d="M3295 5029 c-297 -42 -576 -235 -729 -503 -23 -39 -86 -192 -141
-339 l-100 -267 -42 0 -43 0 0 55 c0 46 -4 60 -25 80 -23 24 -30 25 -142 25
-130 0 -350 -22 -457 -45 -121 -26 -197 -87 -236 -193 -53 -142 11 -302 148
-369 56 -27 61 -28 273 -33 l216 -5 -120 -145 c-134 -163 -200 -256 -246 -348
-26 -51 -35 -62 -49 -56 -9 4 -55 21 -102 38 -78 28 -96 30 -215 31 -148 0
-225 -18 -350 -83 -97 -51 -238 -192 -287 -287 -97 -190 -112 -379 -46 -582
l21 -64 -130 -132 c-72 -73 -138 -147 -148 -166 -26 -51 -30 -130 -10 -190
l17 -51 -40 -63 c-95 -150 -165 -320 -203 -495 -19 -85 -22 -138 -26 -430 l-5
-332 80 0 80 0 5 327 c5 349 9 381 64 548 29 90 99 236 144 301 27 39 32 42
55 34 38 -15 94 -12 150 7 40 13 74 41 187 151 l137 136 63 -22 c78 -27 164
-42 238 -42 55 0 184 21 221 35 17 7 18 -3 18 -126 0 -149 16 -241 55 -326
l25 -55 0 -381 c0 -269 4 -392 12 -421 16 -55 99 -138 154 -154 29 -8 147 -12
396 -12 412 0 420 1 491 80 59 66 67 100 67 289 0 154 1 161 20 161 11 0 93
-7 182 -15 310 -28 586 -35 1351 -35 l767 0 0 79 0 79 -897 5 c-1033 5 -1161
12 -1723 93 -394 56 -479 84 -591 194 -71 70 -108 136 -134 235 -17 69 -22
405 -5 405 20 0 149 132 189 193 70 108 121 265 121 374 0 31 2 35 23 30 42
-11 432 -56 564 -67 73 -5 227 -13 342 -16 l209 -7 32 32 c31 30 32 34 25 87
-24 195 -119 387 -269 543 -90 93 -169 149 -288 206 -147 70 -229 86 -466 94
l-203 6 196 240 197 240 110 17 c290 47 732 94 1103 119 94 6 461 13 818 16
l647 5 0 80 0 80 -657 -5 c-654 -5 -876 -14 -1263 -52 -187 -19 -452 -51 -574
-70 -49 -8 -92 -12 -95 -10 -6 6 180 505 225 603 89 195 259 354 464 435 143
56 158 57 1066 57 l834 0 0 80 0 80 -842 -1 c-464 -1 -870 -5 -903 -10z
m-1215 -1164 c0 -46 4 -60 25 -80 21 -22 33 -25 90 -25 48 0 65 -4 65 -14 0
-7 -24 -43 -52 -79 l-53 -66 -265 0 c-247 -1 -267 0 -298 19 -89 55 -94 179
-9 235 43 28 259 61 425 64 l72 1 0 -55z m358 -934 c144 -42 291 -132 385
-235 85 -92 170 -245 192 -343 l7 -33 -44 0 c-160 1 -601 36 -788 64 l-85 13
45 13 c59 19 141 100 158 156 28 94 8 169 -63 239 -101 102 -229 102 -331 0
-32 -32 -54 -64 -59 -84 l-7 -33 -49 48 -48 47 46 90 46 89 261 -5 c231 -3
270 -7 334 -26z m-987 -160 c118 -37 246 -137 307 -240 98 -167 106 -362 22
-537 -85 -176 -258 -294 -455 -311 -70 -5 -200 11 -210 26 -2 4 24 35 58 68
l62 61 73 5 c146 12 264 92 330 225 35 72 37 81 37 171 0 87 -3 102 -32 163
-44 93 -100 151 -191 196 -72 35 -81 37 -172 37 -91 0 -100 -2 -172 -37 -133
-66 -213 -184 -225 -330 l-5 -73 -61 -62 c-33 -34 -64 -60 -68 -57 -4 2 -13
36 -19 76 -48 284 145 568 430 633 83 19 203 13 291 -14z m684 -76 c50 -49 15
-135 -55 -135 -41 0 -80 39 -80 80 0 41 39 80 80 80 19 0 40 -9 55 -25z m-774
-230 c24 -9 63 -34 86 -57 93 -91 97 -228 10 -321 -23 -25 -36 -34 -32 -22 17
48 17 114 0 166 -43 128 -186 197 -320 154 -12 -4 -4 8 22 33 65 61 147 77
234 47z m-110 -254 c20 -21 29 -39 29 -63 0 -30 -30 -63 -338 -370 -307 -308
-340 -338 -370 -338 -46 0 -92 46 -92 92 0 30 30 63 338 370 307 308 340 338
370 338 24 0 42 -9 63 -29z m651 -1446 c81 -38 184 -61 453 -100 99 -15 186
-29 193 -31 9 -2 12 -46 12 -174 0 -168 0 -171 -25 -195 l-24 -25 -351 0 -351
0 -24 25 -25 24 0 282 0 281 35 -26 c19 -15 68 -42 107 -61z"/>
<path d="M2495 2706 c-101 -44 -125 -178 -46 -257 65 -65 157 -65 222 0 124
124 -15 327 -176 257z"/>
<path d="M585 3815 c-14 -13 -25 -32 -25 -42 0 -31 -30 -135 -51 -180 -49
-101 -147 -187 -254 -223 -69 -23 -95 -48 -95 -90 0 -41 26 -67 84 -84 161
-47 283 -198 312 -386 9 -55 42 -90 84 -90 42 0 75 35 84 90 29 188 151 339
312 386 58 17 84 43 84 84 0 42 -26 67 -95 90 -107 36 -205 122 -254 223 -21
45 -51 149 -51 180 0 29 -45 67 -80 67 -19 0 -40 -9 -55 -25z m88 -370 c16
-25 58 -72 94 -105 l66 -60 -66 -60 c-36 -33 -78 -80 -94 -105 -15 -25 -30
-45 -33 -45 -3 0 -18 20 -33 45 -16 25 -58 72 -94 105 l-66 60 66 60 c36 33
78 80 94 105 15 25 30 45 33 45 3 0 18 -20 33 -45z"/>
<path d="M3605 2951 c-90 -22 -173 -90 -215 -176 -29 -60 -39 -217 -20 -308
38 -186 196 -342 379 -377 33 -6 293 -10 672 -10 l619 0 0 80 0 80 -80 0 -80
0 0 120 0 120 80 0 80 0 0 80 0 80 -80 0 -80 0 0 80 0 80 80 0 80 0 0 80 0 80
-702 -1 c-387 -1 -716 -4 -733 -8z m155 -231 l0 -80 -120 0 c-130 0 -131 0
-109 57 25 67 83 102 172 103 l57 0 0 -80z m320 0 l0 -80 -80 0 -80 0 0 80 0
80 80 0 80 0 0 -80z m320 0 l0 -80 -80 0 -80 0 0 80 0 80 80 0 80 0 0 -80z
m320 0 l0 -80 -80 0 -80 0 0 80 0 80 80 0 80 0 0 -80z m-960 -355 l0 -115 -25
10 c-93 35 -160 102 -195 195 l-10 25 115 0 115 0 0 -115z m320 -5 l0 -120
-80 0 -80 0 0 120 0 120 80 0 80 0 0 -120z m320 0 l0 -120 -80 0 -80 0 0 120
0 120 80 0 80 0 0 -120z m320 0 l0 -120 -80 0 -80 0 0 120 0 120 80 0 80 0 0
-120z"/>
<path d="M2593 1985 c-12 -8 -31 -43 -43 -79 -33 -99 -80 -146 -147 -146 -16
0 -37 -6 -48 -14 -17 -12 -49 -12 -210 0 -257 18 -252 18 -280 -11 l-25 -24 0
-234 c0 -271 7 -304 76 -373 30 -31 58 -47 96 -58 36 -10 255 -27 671 -51 570
-34 620 -35 642 -21 14 9 28 28 31 42 10 38 -159 623 -186 646 -14 11 -50 18
-115 23 -91 7 -96 9 -110 35 -16 30 -33 40 -71 40 -63 0 -113 49 -144 143 -23
71 -47 97 -90 97 -14 0 -35 -7 -47 -15z m67 -291 c11 -12 10 -18 -3 -32 -16
-15 -18 -15 -34 0 -13 14 -14 20 -3 32 7 9 16 16 20 16 4 0 13 -7 20 -16z
m-370 -119 c235 -16 224 -11 260 -120 23 -69 48 -95 90 -95 42 0 67 26 89 92
33 97 20 91 174 83 74 -4 140 -11 147 -15 12 -8 123 -380 115 -388 -4 -4 -484
22 -890 49 -77 5 -157 9 -178 9 -29 0 -46 7 -68 29 l-29 29 0 171 0 171 43 0
c23 0 134 -7 247 -15z"/>
<path d="M3463 1654 c-25 -25 -26 -29 -19 -110 13 -174 81 -319 211 -449 91
-91 174 -143 290 -183 l80 -27 508 -3 507 -3 0 80 0 81 -468 0 c-436 0 -474 1
-547 20 -100 26 -188 75 -259 146 -66 66 -100 120 -133 211 -42 116 -127 103
692 103 l715 0 0 80 0 80 -775 0 -776 0 -26 -26z"/>
</g>
</svg>
