<?xml version="1.0" standalone="no"?>
<!DOCTYPE svg PUBLIC "-//W3C//DTD SVG 20010904//EN"
 "http://www.w3.org/TR/2001/REC-SVG-20010904/DTD/svg10.dtd">
<svg version="1.0" xmlns="http://www.w3.org/2000/svg"
 width="512.000000pt" height="512.000000pt" viewBox="0 0 512.000000 512.000000"
 preserveAspectRatio="xMidYMid meet">

<g transform="translate(0.000000,512.000000) scale(0.100000,-0.100000)"
fill="#000000" stroke="none">
<path d="M1135 5110 c-475 -22 -897 -62 -967 -92 -54 -23 -122 -91 -145 -146
-35 -81 -28 -119 180 -972 108 -443 204 -822 214 -843 24 -55 104 -124 166
-142 43 -13 154 -15 739 -15 413 0 688 -4 688 -9 0 -20 -200 -755 -207 -761
-5 -3 -33 -14 -64 -23 -112 -34 -214 -130 -262 -247 -22 -54 -22 -62 -25 -595
-2 -488 -1 -544 14 -584 20 -53 83 -124 124 -141 l29 -12 3 -171 c2 -145 6
-178 22 -210 24 -49 67 -92 120 -120 38 -21 54 -22 241 -22 226 0 249 6 315
81 56 64 63 93 68 266 l4 158 764 0 764 0 0 -138 c0 -163 13 -219 66 -280 69
-81 91 -87 319 -87 223 0 245 5 310 72 63 65 70 90 73 280 3 163 4 172 24 179
36 11 101 78 124 129 l24 50 0 526 c0 568 -1 581 -55 675 l-24 41 75 6 c172
13 264 116 264 297 0 129 -50 223 -144 273 -38 21 -55 22 -241 22 -217 0 -234
-4 -297 -62 l-27 -25 -10 38 c-126 474 -186 687 -202 721 -28 57 -88 117 -151
150 l-53 28 -453 3 c-422 3 -453 4 -448 20 3 9 76 307 162 662 134 554 156
653 151 701 -9 98 -65 182 -150 224 -47 22 -82 28 -322 50 -149 13 -353 29
-455 35 -242 15 -1103 21 -1345 10z m425 -171 c0 -6 -38 -85 -85 -175 -71
-136 -85 -172 -85 -210 0 -71 31 -115 122 -175 43 -28 78 -55 78 -60 0 -5 -47
-103 -104 -217 -101 -200 -107 -210 -186 -287 -116 -114 -131 -149 -86 -201
18 -21 32 -28 60 -28 32 0 45 9 104 67 l67 66 66 -64 c58 -57 72 -65 105 -65
51 0 84 31 84 79 0 32 -9 46 -74 110 l-74 74 104 209 c92 186 104 215 104 262
0 71 -26 107 -123 174 l-77 53 100 199 100 200 93 0 c424 -1 1290 -62 1340
-95 26 -17 47 -55 47 -85 0 -10 -88 -383 -196 -827 -183 -754 -198 -810 -225
-838 l-29 -30 -1085 0 -1085 0 -26 26 c-24 24 -47 111 -225 845 -174 718 -198
823 -188 851 13 41 49 70 97 77 128 20 611 54 911 65 325 12 371 12 371 0z
m2403 -1710 c33 -17 67 -51 83 -81 12 -24 274 -987 274 -1009 0 -5 -207 -9
-522 -9 l-523 0 272 273 c150 149 277 284 282 299 12 33 -3 84 -29 98 -10 6
-34 10 -52 10 -30 0 -63 -30 -373 -340 l-340 -340 -265 0 -265 0 280 280 c276
276 280 280 280 321 0 51 -30 79 -84 79 -34 0 -54 -18 -376 -340 l-340 -340
-137 0 c-81 0 -138 4 -138 9 0 6 41 162 90 348 50 186 95 355 101 376 l10 37
293 0 c315 0 352 5 425 53 54 36 96 105 116 190 9 39 18 78 21 85 5 17 884 18
917 1z m953 -862 c23 -20 28 -34 32 -86 3 -36 -1 -73 -8 -91 -22 -53 -49 -60
-245 -60 l-175 0 0 101 c0 98 1 101 29 130 l29 29 156 0 c148 0 156 -1 182
-23z m-368 -433 c61 -30 105 -80 127 -143 29 -87 56 -80 -308 -83 l-324 -3
-41 -28 c-35 -23 -52 -47 -102 -147 -49 -97 -60 -129 -60 -168 0 -78 55 -144
136 -162 21 -5 191 -10 377 -10 l337 0 0 -224 c0 -223 0 -225 -24 -253 l-24
-28 -1487 0 -1487 0 -24 28 c-24 28 -24 30 -24 253 l0 224 338 0 c185 0 355 5
376 10 79 18 127 74 133 152 4 49 0 63 -55 173 -33 66 -69 128 -80 138 -47 42
-83 46 -406 47 l-309 0 7 43 c9 54 47 119 89 151 77 59 -16 55 1443 56 l1340
0 52 -26z m-2290 -481 l43 -83 -341 0 -340 0 0 85 0 85 298 -2 297 -3 43 -82z
m2432 2 l0 -85 -340 0 -340 0 36 73 c20 39 41 78 46 85 8 9 81 12 304 12 l294
0 0 -85z m-2472 -1091 c-3 -146 -3 -146 -31 -170 -27 -23 -34 -24 -183 -24
l-156 0 -29 29 -29 29 0 141 0 141 216 0 215 0 -3 -146z m2302 5 l0 -141 -29
-29 -29 -29 -156 0 c-149 0 -156 1 -183 24 -28 24 -28 24 -31 170 l-3 146 215
0 216 0 0 -141z"/>
<path d="M2954 1700 c-55 -22 -70 -95 -29 -135 24 -25 25 -25 230 -25 205 0
206 0 230 25 32 31 32 75 1 112 l-24 28 -194 2 c-106 1 -203 -2 -214 -7z"/>
<path d="M2691 1360 c-39 -9 -77 -35 -105 -74 -18 -24 -21 -45 -24 -163 -2
-90 0 -145 8 -164 17 -40 72 -86 117 -98 51 -15 885 -15 936 0 51 14 104 63
118 108 6 21 9 89 7 163 -3 109 -6 130 -24 154 -29 40 -65 64 -110 74 -48 12
-876 11 -923 0z m889 -255 l0 -85 -425 0 -425 0 0 85 0 85 425 0 425 0 0 -85z"/>
</g>
</svg>
